<svg width="548" height="545" viewBox="0 0 548 545" fill="none" xmlns="http://www.w3.org/2000/svg">
<rect x="4" y="4" width="382.979" height="382.979" rx="10" fill="#ffffff" stroke="#000000" stroke-width="7"/>
<rect x="161.021" y="158.468" width="382.979" height="382.979" rx="10" fill="#ffffff" stroke="#000000" stroke-width="7"/>
<line x1="540.255" y1="540.098" x2="6.63764" y2="9.03398" stroke="#000000" stroke-width="7"/>
<rect x="161.021" y="158.468" width="225.957" height="228.511" rx="10" fill="#ffffff" stroke="#000000" stroke-width="7"/>
<path d="M288.078 315.532C284.494 306.743 280.569 297.996 276.302 289.292C272.121 280.503 267.598 271.713 262.734 262.924V315.532H248.526V236.3H261.198C263.588 240.055 265.977 244.151 268.366 248.588C270.756 252.94 273.06 257.292 275.278 261.644C277.582 265.996 279.673 270.22 281.55 274.316C283.513 278.412 285.177 281.996 286.542 285.068V236.3H300.75V315.532H288.078Z" fill="#000000"/>
<line x1="7.73053" y1="380.654" x2="162.199" y2="532.568" stroke="#000000" stroke-width="7"/>
<line x1="384.327" y1="5.33436" x2="538.795" y2="157.249" stroke="#000000" stroke-width="7"/>
</svg>
